<svg width="128" height="128" viewBox="0 0 128 128" fill="none" xmlns="http://www.w3.org/2000/svg">
<rect width="128" height="128" rx="17" fill="#0560FA"/>
<path d="M105.3 56.1317V72.5612L90.3904 64.3465L79.4723 58.3349L75.4811 56.1317L60.5718 47.917L53.6449 44.1086L45.6625 39.7022L30.7532 31.4875L33.6889 29.8823L45.6625 23.2727L57.6361 29.8823L60.5718 31.4875L75.4811 39.7022L83.4635 44.1086L90.3904 47.917L105.3 56.1317Z" fill="white"/>
<path d="M105.3 72.5607L90.3903 80.744L79.4722 86.7555L75.481 88.9587L71.4898 86.7555L60.5717 80.744L75.481 72.5607V72.5292L105.3 56.1312V72.5607Z" fill="#F3F3F3"/>
<path d="M60.5718 64.3458L45.6625 72.5291V105.388L37.6801 100.982L30.7532 97.1733V47.9163L45.6625 56.131L49.6537 58.3342L60.5718 64.3458Z" fill="white"/>
<path d="M60.5718 97.1731L53.6449 100.981L45.6625 105.388V88.9583L60.5718 97.1731Z" fill="white"/>
</svg>
