<svg width="64" height="64" viewBox="0 0 64 64" fill="none" xmlns="http://www.w3.org/2000/svg">
<rect width="64" height="64" rx="17" fill="#0560FA"/>
<path d="M52.6498 28.0659V36.2806L45.1952 32.1732L39.7362 29.1675L37.7406 28.0659L30.2859 23.9585L26.8225 22.0543L22.8313 19.8511L15.3766 15.7437L16.8445 14.9412L22.8313 11.6364L28.8181 14.9412L30.2859 15.7437L37.7406 19.8511L41.7318 22.0543L45.1952 23.9585L52.6498 28.0659Z" fill="white"/>
<path d="M52.6498 36.2804L45.1951 40.372L39.7361 43.3778L37.7405 44.4794L35.7449 43.3778L30.2859 40.372L37.7405 36.2804V36.2646L52.6498 28.0656V36.2804Z" fill="#F3F3F3"/>
<path d="M30.2859 32.1729L22.8313 36.2645V52.694L18.8401 50.4908L15.3766 48.5867V23.9581L22.8313 28.0655L24.8269 29.1671L30.2859 32.1729Z" fill="white"/>
<path d="M30.2859 48.5865L26.8225 50.4907L22.8313 52.6939V44.4792L30.2859 48.5865Z" fill="white"/>
</svg>
