<svg width="32" height="32" viewBox="0 0 32 32" fill="none" xmlns="http://www.w3.org/2000/svg">
<rect width="32" height="32" rx="16" fill="#0560FA"/>
<path d="M26.3249 14.0329V18.1403L22.5976 16.0866L19.8681 14.5837L18.8703 14.0329L15.143 11.9792L13.4112 11.0272L11.4156 9.92556L7.68831 7.87187L8.42223 7.47058L11.4156 5.81818L14.409 7.47058L15.143 7.87187L18.8703 9.92556L20.8659 11.0272L22.5976 11.9792L26.3249 14.0329Z" fill="white"/>
<path d="M26.3249 18.1402L22.5976 20.186L19.868 21.6889L18.8702 22.2397L17.8724 21.6889L15.1429 20.186L18.8702 18.1402V18.1323L26.3249 14.0328V18.1402Z" fill="#F3F3F3"/>
<path d="M15.143 16.0864L11.4156 18.1323V26.347L9.42003 25.2454L7.68831 24.2933V11.9791L11.4156 14.0328L12.4134 14.5836L15.143 16.0864Z" fill="white"/>
<path d="M15.1429 24.2933L13.4112 25.2454L11.4156 26.347V22.2396L15.1429 24.2933Z" fill="white"/>
</svg>
