<svg width="154" height="154" viewBox="0 0 154 154" fill="none" xmlns="http://www.w3.org/2000/svg">
<rect width="154" height="154" rx="17" fill="#0560FA"/>
<path d="M126.689 67.5335V87.3002L108.751 77.4168L95.6151 70.1842L90.8132 67.5335L72.8755 57.6501L64.5416 53.0682L54.9377 47.7667L37 37.8834L40.532 35.9521L54.9377 28L69.3435 35.9521L72.8755 37.8834L90.8132 47.7667L100.417 53.0682L108.751 57.6501L126.689 67.5335Z" fill="white"/>
<path d="M126.689 87.2995L108.751 97.145L95.615 104.378L90.8131 107.028L86.0112 104.378L72.8753 97.145L90.8131 87.2995V87.2616L126.689 67.5327V87.2995Z" fill="#F3F3F3"/>
<path d="M72.8755 77.4162L54.9377 87.2617V126.795L45.3339 121.494L37 116.912V57.6494L54.9377 67.5328L59.7397 70.1835L72.8755 77.4162Z" fill="white"/>
<path d="M72.8755 116.911L64.5415 121.493L54.9377 126.795V107.028L72.8755 116.911Z" fill="white"/>
</svg>
